<mxfile host="app.diagrams.net" modified="2021-09-27T11:15:04.908Z" agent="5.0 (X11; Linux x86_64) AppleWebKit/537.36 (KHTML, like Gecko) Chrome/94.0.4606.61 Safari/537.36" etag="Kw0p4X3sucEF0rh8BXHF" version="15.3.4" type="github">
  <diagram id="HBHdWC7SzEduz1R7-0jp" name="Page-1">
    <mxGraphModel dx="1588" dy="909" grid="1" gridSize="10" guides="1" tooltips="1" connect="1" arrows="1" fold="1" page="1" pageScale="1" pageWidth="1169" pageHeight="827" math="0" shadow="0">
      <root>
        <mxCell id="0" />
        <mxCell id="1" parent="0" />
        <mxCell id="djNdCWOYUqXFb6dIhVZj-1" value="" style="rounded=1;whiteSpace=wrap;html=1;hachureGap=4;pointerEvents=0;strokeWidth=1;glass=0;shadow=0;fillColor=#fad7ac;strokeColor=#b46504;" vertex="1" parent="1">
          <mxGeometry x="40" y="520" width="480" height="520" as="geometry" />
        </mxCell>
        <mxCell id="djNdCWOYUqXFb6dIhVZj-2" value="Apache Calcite" style="rounded=1;whiteSpace=wrap;html=1;hachureGap=4;pointerEvents=0;fillColor=#008a00;strokeColor=#005700;fontColor=#ffffff;fontStyle=1;shadow=1;glass=1;" vertex="1" parent="1">
          <mxGeometry x="290" y="470" width="110" height="32" as="geometry" />
        </mxCell>
        <mxCell id="djNdCWOYUqXFb6dIhVZj-3" value="JDBC Client" style="rounded=1;whiteSpace=wrap;html=1;shadow=1;glass=0;hachureGap=4;pointerEvents=0;strokeWidth=1;fillColor=#f0a30a;strokeColor=#BD7000;fontColor=#000000;sketch=0;" vertex="1" parent="1">
          <mxGeometry x="130" y="460" width="90" height="36" as="geometry" />
        </mxCell>
        <mxCell id="djNdCWOYUqXFb6dIhVZj-12" value="" style="edgeStyle=none;curved=1;rounded=0;orthogonalLoop=1;jettySize=auto;html=1;endArrow=classicThin;sourcePerimeterSpacing=8;targetPerimeterSpacing=8;dashed=1;startArrow=classicThin;startFill=1;endFill=1;entryX=0.5;entryY=1;entryDx=0;entryDy=0;exitX=0.5;exitY=0;exitDx=0;exitDy=0;" edge="1" parent="1" source="djNdCWOYUqXFb6dIhVZj-5" target="djNdCWOYUqXFb6dIhVZj-3">
          <mxGeometry relative="1" as="geometry">
            <mxPoint x="173" y="540" as="sourcePoint" />
            <Array as="points" />
          </mxGeometry>
        </mxCell>
        <mxCell id="djNdCWOYUqXFb6dIhVZj-5" value="JDBC Server" style="rounded=1;whiteSpace=wrap;html=1;shadow=1;glass=0;hachureGap=4;pointerEvents=0;strokeWidth=1;fillColor=#f0a30a;strokeColor=#BD7000;fontColor=#000000;" vertex="1" parent="1">
          <mxGeometry x="130" y="550" width="90" height="36" as="geometry" />
        </mxCell>
        <mxCell id="djNdCWOYUqXFb6dIhVZj-6" value="SQL Parser&lt;br&gt;and Vaildator" style="rounded=1;whiteSpace=wrap;html=1;shadow=1;glass=0;hachureGap=4;pointerEvents=0;strokeWidth=1;fillColor=#d5e8d4;fontStyle=1;strokeColor=#82b366;gradientColor=#97d077;" vertex="1" parent="1">
          <mxGeometry x="130" y="624" width="90" height="66" as="geometry" />
        </mxCell>
        <mxCell id="djNdCWOYUqXFb6dIhVZj-7" value="Operator&lt;br&gt;Expressions" style="rounded=1;whiteSpace=wrap;html=1;shadow=1;glass=0;hachureGap=4;pointerEvents=0;strokeWidth=1;fillColor=#dae8fc;gradientColor=#7ea6e0;strokeColor=#6c8ebf;" vertex="1" parent="1">
          <mxGeometry x="130" y="730" width="90" height="46" as="geometry" />
        </mxCell>
        <mxCell id="djNdCWOYUqXFb6dIhVZj-8" value="Query Optimizer" style="rounded=1;whiteSpace=wrap;html=1;shadow=1;glass=0;hachureGap=4;pointerEvents=0;strokeWidth=1;fillColor=#d5e8d4;fontStyle=1;gradientColor=#97d077;strokeColor=#82b366;" vertex="1" parent="1">
          <mxGeometry x="110" y="840" width="130" height="110" as="geometry" />
        </mxCell>
        <mxCell id="djNdCWOYUqXFb6dIhVZj-17" style="edgeStyle=orthogonalEdgeStyle;rounded=0;orthogonalLoop=1;jettySize=auto;html=1;exitX=0.5;exitY=1;exitDx=0;exitDy=0;startArrow=classicThin;startFill=1;endArrow=classicThin;endFill=1;sourcePerimeterSpacing=8;targetPerimeterSpacing=8;entryX=1;entryY=0.25;entryDx=0;entryDy=0;" edge="1" parent="1" source="djNdCWOYUqXFb6dIhVZj-9" target="djNdCWOYUqXFb6dIhVZj-7">
          <mxGeometry relative="1" as="geometry" />
        </mxCell>
        <mxCell id="djNdCWOYUqXFb6dIhVZj-9" value="Expressions&lt;br&gt;Builder" style="rounded=1;whiteSpace=wrap;html=1;shadow=1;glass=0;hachureGap=4;pointerEvents=0;strokeWidth=1;fillColor=#dae8fc;gradientColor=#7ea6e0;strokeColor=#6c8ebf;" vertex="1" parent="1">
          <mxGeometry x="320" y="640" width="120" height="70" as="geometry" />
        </mxCell>
        <mxCell id="djNdCWOYUqXFb6dIhVZj-10" value="MetaData&lt;br&gt;Providers" style="rounded=1;whiteSpace=wrap;html=1;shadow=1;glass=0;hachureGap=4;pointerEvents=0;strokeWidth=1;fillColor=#d5e8d4;fontStyle=1;gradientColor=#97d077;strokeColor=#82b366;" vertex="1" parent="1">
          <mxGeometry x="340" y="846" width="110" height="43" as="geometry" />
        </mxCell>
        <mxCell id="djNdCWOYUqXFb6dIhVZj-11" value="Pluggable&lt;br&gt;Rules" style="rounded=1;whiteSpace=wrap;html=1;shadow=1;glass=0;hachureGap=4;pointerEvents=0;strokeWidth=1;fillColor=#d5e8d4;fontStyle=1;gradientColor=#97d077;strokeColor=#82b366;" vertex="1" parent="1">
          <mxGeometry x="340" y="900" width="110" height="43" as="geometry" />
        </mxCell>
        <mxCell id="djNdCWOYUqXFb6dIhVZj-13" value="" style="edgeStyle=none;curved=1;rounded=0;orthogonalLoop=1;jettySize=auto;html=1;endArrow=classicThin;sourcePerimeterSpacing=8;targetPerimeterSpacing=8;startArrow=classicThin;startFill=1;endFill=1;entryX=0.5;entryY=1;entryDx=0;entryDy=0;exitX=0.5;exitY=0;exitDx=0;exitDy=0;" edge="1" parent="1" source="djNdCWOYUqXFb6dIhVZj-6" target="djNdCWOYUqXFb6dIhVZj-5">
          <mxGeometry relative="1" as="geometry">
            <mxPoint x="175" y="620" as="sourcePoint" />
            <mxPoint x="175.21000000000004" y="596" as="targetPoint" />
          </mxGeometry>
        </mxCell>
        <mxCell id="djNdCWOYUqXFb6dIhVZj-14" value="" style="edgeStyle=none;curved=1;rounded=0;orthogonalLoop=1;jettySize=auto;html=1;endArrow=classicThin;sourcePerimeterSpacing=8;targetPerimeterSpacing=8;startArrow=classicThin;startFill=1;endFill=1;exitX=0.5;exitY=0;exitDx=0;exitDy=0;" edge="1" parent="1" source="djNdCWOYUqXFb6dIhVZj-7">
          <mxGeometry relative="1" as="geometry">
            <mxPoint x="185" y="634.0000000000001" as="sourcePoint" />
            <mxPoint x="175" y="690" as="targetPoint" />
          </mxGeometry>
        </mxCell>
        <mxCell id="djNdCWOYUqXFb6dIhVZj-15" value="" style="edgeStyle=none;curved=1;rounded=0;orthogonalLoop=1;jettySize=auto;html=1;endArrow=classicThin;sourcePerimeterSpacing=8;targetPerimeterSpacing=8;startArrow=classicThin;startFill=1;endFill=1;entryX=0.5;entryY=1;entryDx=0;entryDy=0;exitX=0.5;exitY=0;exitDx=0;exitDy=0;" edge="1" parent="1" source="djNdCWOYUqXFb6dIhVZj-8" target="djNdCWOYUqXFb6dIhVZj-7">
          <mxGeometry relative="1" as="geometry">
            <mxPoint x="240" y="804.0000000000001" as="sourcePoint" />
            <mxPoint x="240" y="766" as="targetPoint" />
          </mxGeometry>
        </mxCell>
        <mxCell id="djNdCWOYUqXFb6dIhVZj-19" value="" style="edgeStyle=none;curved=1;rounded=0;orthogonalLoop=1;jettySize=auto;html=1;endArrow=classicThin;sourcePerimeterSpacing=8;targetPerimeterSpacing=8;startArrow=classicThin;startFill=1;endFill=1;entryX=0;entryY=0.5;entryDx=0;entryDy=0;exitX=1;exitY=0.25;exitDx=0;exitDy=0;" edge="1" parent="1" source="djNdCWOYUqXFb6dIhVZj-8" target="djNdCWOYUqXFb6dIhVZj-10">
          <mxGeometry relative="1" as="geometry">
            <mxPoint x="185" y="850" as="sourcePoint" />
            <mxPoint x="185" y="786" as="targetPoint" />
          </mxGeometry>
        </mxCell>
        <mxCell id="djNdCWOYUqXFb6dIhVZj-20" value="" style="edgeStyle=none;curved=1;rounded=0;orthogonalLoop=1;jettySize=auto;html=1;endArrow=classicThin;sourcePerimeterSpacing=8;targetPerimeterSpacing=8;startArrow=classicThin;startFill=1;endFill=1;entryX=0;entryY=0.5;entryDx=0;entryDy=0;exitX=1;exitY=0.75;exitDx=0;exitDy=0;" edge="1" parent="1" source="djNdCWOYUqXFb6dIhVZj-8" target="djNdCWOYUqXFb6dIhVZj-11">
          <mxGeometry relative="1" as="geometry">
            <mxPoint x="250" y="877.5" as="sourcePoint" />
            <mxPoint x="350" y="877.5" as="targetPoint" />
          </mxGeometry>
        </mxCell>
        <mxCell id="djNdCWOYUqXFb6dIhVZj-21" value="Data Processing" style="rounded=1;whiteSpace=wrap;html=1;hachureGap=4;pointerEvents=0;fillColor=#008a00;strokeColor=#005700;fontColor=#ffffff;fontStyle=1;shadow=1;glass=1;" vertex="1" parent="1">
          <mxGeometry x="590" y="592" width="110" height="32" as="geometry" />
        </mxCell>
        <mxCell id="djNdCWOYUqXFb6dIhVZj-22" value="KV API" style="rounded=1;whiteSpace=wrap;html=1;hachureGap=4;pointerEvents=0;fillColor=#008a00;strokeColor=#005700;fontColor=#ffffff;fontStyle=1;shadow=1;glass=1;" vertex="1" parent="1">
          <mxGeometry x="755" y="592" width="110" height="32" as="geometry" />
        </mxCell>
        <mxCell id="djNdCWOYUqXFb6dIhVZj-23" value="Data Storage engine" style="rounded=1;whiteSpace=wrap;html=1;hachureGap=4;pointerEvents=0;fillColor=#008a00;strokeColor=#005700;fontColor=#ffffff;fontStyle=1;shadow=1;glass=1;" vertex="1" parent="1">
          <mxGeometry x="930" y="470" width="120" height="32" as="geometry" />
        </mxCell>
        <mxCell id="djNdCWOYUqXFb6dIhVZj-24" value="" style="rounded=1;whiteSpace=wrap;html=1;shadow=0;glass=0;hachureGap=4;pointerEvents=0;strokeWidth=1;fillColor=#fad7ac;strokeColor=#b46504;" vertex="1" parent="1">
          <mxGeometry x="585" y="650" width="120" height="390" as="geometry" />
        </mxCell>
        <mxCell id="djNdCWOYUqXFb6dIhVZj-25" value="" style="rounded=1;whiteSpace=wrap;html=1;shadow=0;glass=0;hachureGap=4;pointerEvents=0;strokeWidth=1;fillColor=#fad7ac;strokeColor=#b46504;" vertex="1" parent="1">
          <mxGeometry x="750" y="650" width="120" height="390" as="geometry" />
        </mxCell>
        <mxCell id="djNdCWOYUqXFb6dIhVZj-26" value="" style="rounded=1;whiteSpace=wrap;html=1;shadow=0;glass=0;hachureGap=4;pointerEvents=0;strokeWidth=1;fillColor=#fad7ac;strokeColor=#b46504;" vertex="1" parent="1">
          <mxGeometry x="930" y="520" width="120" height="520" as="geometry" />
        </mxCell>
        <mxCell id="djNdCWOYUqXFb6dIhVZj-27" value="" style="edgeStyle=none;curved=1;rounded=0;orthogonalLoop=1;jettySize=auto;html=1;endArrow=classicThin;sourcePerimeterSpacing=8;targetPerimeterSpacing=8;dashed=1;startArrow=classicThin;startFill=1;endFill=1;entryX=0.994;entryY=0.453;entryDx=0;entryDy=0;entryPerimeter=0;" edge="1" parent="1" target="djNdCWOYUqXFb6dIhVZj-9">
          <mxGeometry relative="1" as="geometry">
            <mxPoint x="586" y="672" as="sourcePoint" />
            <mxPoint x="480" y="730" as="targetPoint" />
            <Array as="points" />
          </mxGeometry>
        </mxCell>
        <mxCell id="djNdCWOYUqXFb6dIhVZj-28" value="" style="edgeStyle=none;curved=1;rounded=0;orthogonalLoop=1;jettySize=auto;html=1;endArrow=classicThin;sourcePerimeterSpacing=8;targetPerimeterSpacing=8;dashed=1;startArrow=classicThin;startFill=1;endFill=1;entryX=1;entryY=0.75;entryDx=0;entryDy=0;exitX=0.005;exitY=0.3;exitDx=0;exitDy=0;exitPerimeter=0;" edge="1" parent="1" source="djNdCWOYUqXFb6dIhVZj-24" target="djNdCWOYUqXFb6dIhVZj-7">
          <mxGeometry relative="1" as="geometry">
            <mxPoint x="591.52" y="681.06" as="sourcePoint" />
            <mxPoint x="449.28" y="681.71" as="targetPoint" />
            <Array as="points" />
          </mxGeometry>
        </mxCell>
        <mxCell id="djNdCWOYUqXFb6dIhVZj-29" value="" style="edgeStyle=none;curved=1;rounded=0;orthogonalLoop=1;jettySize=auto;html=1;endArrow=classicThin;sourcePerimeterSpacing=8;targetPerimeterSpacing=8;dashed=1;startArrow=classicThin;startFill=1;endFill=1;entryX=1;entryY=0.5;entryDx=0;entryDy=0;exitX=0.002;exitY=0.558;exitDx=0;exitDy=0;exitPerimeter=0;" edge="1" parent="1" source="djNdCWOYUqXFb6dIhVZj-24" target="djNdCWOYUqXFb6dIhVZj-10">
          <mxGeometry relative="1" as="geometry">
            <mxPoint x="580" y="868" as="sourcePoint" />
            <mxPoint x="459.28" y="691.71" as="targetPoint" />
            <Array as="points" />
          </mxGeometry>
        </mxCell>
        <mxCell id="djNdCWOYUqXFb6dIhVZj-30" value="" style="edgeStyle=none;curved=1;rounded=0;orthogonalLoop=1;jettySize=auto;html=1;endArrow=classicThin;sourcePerimeterSpacing=8;targetPerimeterSpacing=8;dashed=1;startArrow=classicThin;startFill=1;endFill=1;entryX=1;entryY=0.5;entryDx=0;entryDy=0;exitX=0;exitY=0.7;exitDx=0;exitDy=0;exitPerimeter=0;" edge="1" parent="1" source="djNdCWOYUqXFb6dIhVZj-24" target="djNdCWOYUqXFb6dIhVZj-11">
          <mxGeometry relative="1" as="geometry">
            <mxPoint x="580" y="922" as="sourcePoint" />
            <mxPoint x="460" y="877.5" as="targetPoint" />
            <Array as="points" />
          </mxGeometry>
        </mxCell>
        <mxCell id="djNdCWOYUqXFb6dIhVZj-32" value="" style="edgeStyle=none;curved=1;rounded=0;orthogonalLoop=1;jettySize=auto;html=1;endArrow=classicThin;sourcePerimeterSpacing=8;targetPerimeterSpacing=8;startArrow=classicThin;startFill=1;endFill=1;exitX=-0.031;exitY=0.456;exitDx=0;exitDy=0;entryX=0.999;entryY=0.454;entryDx=0;entryDy=0;entryPerimeter=0;exitPerimeter=0;" edge="1" parent="1" source="djNdCWOYUqXFb6dIhVZj-25" target="djNdCWOYUqXFb6dIhVZj-24">
          <mxGeometry relative="1" as="geometry">
            <mxPoint x="730" y="914" as="sourcePoint" />
            <mxPoint x="720" y="850" as="targetPoint" />
          </mxGeometry>
        </mxCell>
        <mxCell id="djNdCWOYUqXFb6dIhVZj-33" value="" style="edgeStyle=none;curved=1;rounded=0;orthogonalLoop=1;jettySize=auto;html=1;endArrow=classicThin;sourcePerimeterSpacing=8;targetPerimeterSpacing=8;startArrow=classicThin;startFill=1;endFill=1;exitX=0.992;exitY=0.457;exitDx=0;exitDy=0;exitPerimeter=0;entryX=-0.006;entryY=0.593;entryDx=0;entryDy=0;entryPerimeter=0;" edge="1" parent="1" source="djNdCWOYUqXFb6dIhVZj-25" target="djNdCWOYUqXFb6dIhVZj-26">
          <mxGeometry relative="1" as="geometry">
            <mxPoint x="756.28" y="837.8399999999999" as="sourcePoint" />
            <mxPoint x="928" y="826" as="targetPoint" />
          </mxGeometry>
        </mxCell>
        <mxCell id="djNdCWOYUqXFb6dIhVZj-34" value="RocksDB" style="shape=cylinder3;whiteSpace=wrap;html=1;boundedLbl=1;backgroundOutline=1;size=15;rounded=1;shadow=1;glass=0;hachureGap=4;pointerEvents=0;strokeWidth=1;fillColor=#bac8d3;strokeColor=#23445d;" vertex="1" parent="1">
          <mxGeometry x="960" y="560" width="60" height="80" as="geometry" />
        </mxCell>
        <mxCell id="djNdCWOYUqXFb6dIhVZj-35" value="LevelDB" style="shape=cylinder3;whiteSpace=wrap;html=1;boundedLbl=1;backgroundOutline=1;size=15;rounded=1;shadow=1;glass=0;hachureGap=4;pointerEvents=0;strokeWidth=1;fillColor=#bac8d3;strokeColor=#23445d;" vertex="1" parent="1">
          <mxGeometry x="960" y="670" width="60" height="80" as="geometry" />
        </mxCell>
        <mxCell id="djNdCWOYUqXFb6dIhVZj-36" value="BoltDB" style="shape=cylinder3;whiteSpace=wrap;html=1;boundedLbl=1;backgroundOutline=1;size=15;rounded=1;shadow=1;glass=0;hachureGap=4;pointerEvents=0;strokeWidth=1;fillColor=#bac8d3;strokeColor=#23445d;" vertex="1" parent="1">
          <mxGeometry x="960" y="790" width="60" height="80" as="geometry" />
        </mxCell>
        <mxCell id="djNdCWOYUqXFb6dIhVZj-37" value="Others" style="shape=cylinder3;whiteSpace=wrap;html=1;boundedLbl=1;backgroundOutline=1;size=15;rounded=1;shadow=1;glass=0;hachureGap=4;pointerEvents=0;strokeWidth=1;fillColor=#bac8d3;strokeColor=#23445d;" vertex="1" parent="1">
          <mxGeometry x="960" y="910" width="60" height="80" as="geometry" />
        </mxCell>
        <mxCell id="djNdCWOYUqXFb6dIhVZj-40" value="Schema Pro" style="rounded=1;whiteSpace=wrap;html=1;shadow=1;glass=0;hachureGap=4;pointerEvents=0;strokeWidth=1;fillColor=#d5e8d4;strokeColor=#82b366;gradientColor=#97d077;" vertex="1" parent="1">
          <mxGeometry x="610" y="696" width="70" height="34" as="geometry" />
        </mxCell>
        <mxCell id="djNdCWOYUqXFb6dIhVZj-41" value="DDL Pro" style="rounded=1;whiteSpace=wrap;html=1;shadow=1;glass=0;hachureGap=4;pointerEvents=0;strokeWidth=1;fillColor=#d5e8d4;gradientColor=#97d077;strokeColor=#82b366;" vertex="1" parent="1">
          <mxGeometry x="610" y="776" width="70" height="34" as="geometry" />
        </mxCell>
        <mxCell id="djNdCWOYUqXFb6dIhVZj-42" value="DML Pro" style="rounded=1;whiteSpace=wrap;html=1;shadow=1;glass=0;hachureGap=4;pointerEvents=0;strokeWidth=1;fillColor=#d5e8d4;gradientColor=#97d077;strokeColor=#82b366;" vertex="1" parent="1">
          <mxGeometry x="610" y="855" width="70" height="34" as="geometry" />
        </mxCell>
        <mxCell id="djNdCWOYUqXFb6dIhVZj-43" value="DQL Pro" style="rounded=1;whiteSpace=wrap;html=1;shadow=1;glass=0;hachureGap=4;pointerEvents=0;strokeWidth=1;fillColor=#d5e8d4;gradientColor=#97d077;strokeColor=#82b366;" vertex="1" parent="1">
          <mxGeometry x="610" y="933" width="70" height="34" as="geometry" />
        </mxCell>
        <mxCell id="djNdCWOYUqXFb6dIhVZj-44" value="Put" style="rounded=1;whiteSpace=wrap;html=1;shadow=1;glass=0;hachureGap=4;pointerEvents=0;strokeWidth=1;fillColor=#d5e8d4;strokeColor=#82b366;gradientColor=#97d077;" vertex="1" parent="1">
          <mxGeometry x="775" y="696" width="70" height="34" as="geometry" />
        </mxCell>
        <mxCell id="djNdCWOYUqXFb6dIhVZj-45" value="Get" style="rounded=1;whiteSpace=wrap;html=1;shadow=1;glass=0;hachureGap=4;pointerEvents=0;strokeWidth=1;fillColor=#d5e8d4;strokeColor=#82b366;gradientColor=#97d077;" vertex="1" parent="1">
          <mxGeometry x="775" y="776" width="70" height="34" as="geometry" />
        </mxCell>
        <mxCell id="djNdCWOYUqXFb6dIhVZj-46" value="Del" style="rounded=1;whiteSpace=wrap;html=1;shadow=1;glass=0;hachureGap=4;pointerEvents=0;strokeWidth=1;fillColor=#d5e8d4;strokeColor=#82b366;gradientColor=#97d077;" vertex="1" parent="1">
          <mxGeometry x="775" y="855" width="70" height="34" as="geometry" />
        </mxCell>
        <mxCell id="djNdCWOYUqXFb6dIhVZj-47" value="Multi&lt;br&gt;Get" style="rounded=1;whiteSpace=wrap;html=1;shadow=1;glass=0;hachureGap=4;pointerEvents=0;strokeWidth=1;fillColor=#d5e8d4;strokeColor=#82b366;gradientColor=#97d077;" vertex="1" parent="1">
          <mxGeometry x="775" y="933" width="70" height="34" as="geometry" />
        </mxCell>
      </root>
    </mxGraphModel>
  </diagram>
</mxfile>
